# xmcd
#
# Track frame offsets: 
#        150
#        24100
#        43475
#        68725
#        88113
#        119200
#        148125
#        168775
#        196300
#        217275
#
# Disc length: 3146 seconds
#
# Revision: 0
# Processed by: cddbd v1.5.2PL0 Copyright (c) Steve Scherf et al.
# Submitted via: ExactAudioCopy v1.0b3
#
DISCID=9a0c480a
DTITLE=Nhat Truong - Rung La Thap
DYEAR=1993
DGENRE=
TTITLE0=Rung la thap
TTITLE1=Hay tra loi anh
TTITLE2=Toc may
TTITLE3=Rung chua thay la
TTITLE4=Bien man
TTITLE5=De quen con tim
TTITLE6=Nguoi yeu cua linh
TTITLE7=Truc dao
TTITLE8=Duong xa uot mua
TTITLE9=Gap nhau lam ngo
EXTD=
EXTT0=
EXTT1=
EXTT2=
EXTT3=
EXTT4=
EXTT5=
EXTT6=
EXTT7=
EXTT8=
EXTT9=
PLAYORDER=
